<?xml version="1.0" encoding="UTF-8"?>
<svg version="1.1" xmlns="http://www.w3.org/2000/svg" width="512" height="512">
<path d="M0 0 C5.77378379 5.26874833 8.91194003 12.11660044 9.42578125 19.82421875 C9.6397242 27.79431983 9.56688458 34.30637051 5.1875 41.25 C4.836875 41.87132812 4.48625 42.49265625 4.125 43.1328125 C0.97457099 48.1866257 -3.48482874 51.64302786 -8.8125 54.25 C-11.7825 54.745 -11.7825 54.745 -14.8125 55.25 C-14.8125 60.86 -14.8125 66.47 -14.8125 72.25 C-13.24886719 72.21777344 -11.68523437 72.18554688 -10.07421875 72.15234375 C15.49474471 72.18093068 41.43273064 79.96835062 64.1875 91.25 C64.95900391 91.62495605 65.73050781 91.99991211 66.52539062 92.38623047 C114.89298401 116.04772022 150.83210077 158.57437552 168.25585938 209.32861328 C174.78190799 229.79263259 177.61494082 250.22914723 177.5625 271.625 C177.56162384 272.5022876 177.56074768 273.3795752 177.55984497 274.28344727 C177.51185232 288.90642497 176.60004946 302.97755694 173.1875 317.25 C172.95144043 318.23774414 172.71538086 319.22548828 172.47216797 320.24316406 C159.83696938 371.06093891 127.72980938 415.54679462 83.125 443.0625 C62.38395325 455.51913767 40.82353111 464.02232436 17.1875 469.25 C16.37603516 469.43079102 15.56457031 469.61158203 14.72851562 469.79785156 C-9.56598597 474.9023354 -38.60395397 474.62505617 -62.8125 469.25 C-63.61059082 469.07307617 -64.40868164 468.89615234 -65.23095703 468.71386719 C-70.82166158 467.42908134 -76.32491966 465.91861845 -81.8125 464.25 C-82.50730469 464.04036621 -83.20210937 463.83073242 -83.91796875 463.61474609 C-114.50056189 454.15598693 -140.81808069 437.18609876 -163.8125 415.25 C-164.66457031 414.45078125 -165.51664063 413.6515625 -166.39453125 412.828125 C-173.28089108 406.19119237 -179.15982545 398.94076975 -184.8125 391.25 C-185.22999512 390.68216797 -185.64749023 390.11433594 -186.07763672 389.52929688 C-210.58965435 355.65390242 -223.31993205 314.7811786 -223.125 273.125 C-223.12317719 272.31362579 -223.12135437 271.50225159 -223.11947632 270.66629028 C-223.07161556 257.98474824 -222.47718202 245.68693125 -219.8125 233.25 C-219.64621094 232.4446582 -219.47992188 231.63931641 -219.30859375 230.80957031 C-210.50677539 189.26172774 -187.13534461 143.61606962 -151.8125 118.25 C-153.13370828 115.31769807 -154.55888197 113.26335101 -156.8515625 111.015625 C-157.43164062 110.44199219 -158.01171875 109.86835938 -158.609375 109.27734375 C-159.21265625 108.69082031 -159.8159375 108.10429687 -160.4375 107.5 C-161.35402344 106.59701172 -161.35402344 106.59701172 -162.2890625 105.67578125 C-163.79238624 104.19594695 -165.30184856 102.72235324 -166.8125 101.25 C-167.34359375 101.52714844 -167.8746875 101.80429688 -168.421875 102.08984375 C-169.48148438 102.63318359 -169.48148438 102.63318359 -170.5625 103.1875 C-171.25859375 103.54714844 -171.9546875 103.90679687 -172.671875 104.27734375 C-178.21327246 106.7952415 -184.34331647 107.29988449 -190.1875 105.53125 C-197.40539586 102.50753687 -202.78298712 98.72298269 -206.05859375 91.41796875 C-208.40356062 84.67467023 -208.36381298 77.92914484 -205.8125 71.25 C-202.77019815 65.59833925 -197.87057333 61.07517127 -193.4375 56.5 C-192.64412231 55.66710449 -192.64412231 55.66710449 -191.8347168 54.81738281 C-187.01832027 49.98270635 -182.1306328 46.7881759 -175.3203125 45.68359375 C-166.48557617 45.69379552 -159.40028741 46.68132837 -152.9375 53.1171875 C-148.32276063 58.81905298 -146.35308654 64.7311771 -146.5546875 72.1328125 C-147.22727684 77.65619768 -149.01838684 83.09454273 -152.8125 87.25 C-151.4540798 90.29332765 -149.92786976 92.37309151 -147.5546875 94.703125 C-146.92949219 95.321875 -146.30429688 95.940625 -145.66015625 96.578125 C-145.00917969 97.21234375 -144.35820312 97.8465625 -143.6875 98.5 C-143.02878906 99.1496875 -142.37007813 99.799375 -141.69140625 100.46875 C-140.06953357 102.06711727 -138.4431719 103.66061897 -136.8125 105.25 C-132.39583228 103.64779233 -128.42952343 101.40328607 -124.375 99.0625 C-96.2368377 83.10545756 -63.72836599 70.77615525 -30.8125 72.25 C-30.8125 66.64 -30.8125 61.03 -30.8125 55.25 C-33.7825 54.755 -33.7825 54.755 -36.8125 54.25 C-45.04289144 50.03443365 -50.48992132 43.97635777 -53.9453125 35.45703125 C-56.28006757 26.82264427 -55.97065051 16.45673907 -52.0625 8.35546875 C-47.42111182 0.53763053 -41.00097755 -4.6254518 -32.33203125 -7.6015625 C-20.18671308 -10.49790229 -9.75065612 -7.56044395 0 0 Z " fill="#FDE8AA" transform="translate(278.8125,23.75)"/>
<path d="M0 0 C5.77378379 5.26874833 8.91194003 12.11660044 9.42578125 19.82421875 C9.6397242 27.79431983 9.56688458 34.30637051 5.1875 41.25 C4.836875 41.87132812 4.48625 42.49265625 4.125 43.1328125 C0.97457099 48.1866257 -3.48482874 51.64302786 -8.8125 54.25 C-11.7825 54.745 -11.7825 54.745 -14.8125 55.25 C-14.8125 60.86 -14.8125 66.47 -14.8125 72.25 C-13.24886719 72.21777344 -11.68523437 72.18554688 -10.07421875 72.15234375 C15.49474471 72.18093068 41.43273064 79.96835062 64.1875 91.25 C64.95900391 91.62495605 65.73050781 91.99991211 66.52539062 92.38623047 C114.89298401 116.04772022 150.83210077 158.57437552 168.25585938 209.32861328 C174.78190799 229.79263259 177.61494082 250.22914723 177.5625 271.625 C177.56162384 272.5022876 177.56074768 273.3795752 177.55984497 274.28344727 C177.51185232 288.90642497 176.60004946 302.97755694 173.1875 317.25 C172.95144043 318.23774414 172.71538086 319.22548828 172.47216797 320.24316406 C159.83696938 371.06093891 127.72980938 415.54679462 83.125 443.0625 C62.38395325 455.51913767 40.82353111 464.02232436 17.1875 469.25 C16.37603516 469.43079102 15.56457031 469.61158203 14.72851562 469.79785156 C-9.56598597 474.9023354 -38.60395397 474.62505617 -62.8125 469.25 C-63.61059082 469.07307617 -64.40868164 468.89615234 -65.23095703 468.71386719 C-70.82166158 467.42908134 -76.32491966 465.91861845 -81.8125 464.25 C-82.50730469 464.04036621 -83.20210937 463.83073242 -83.91796875 463.61474609 C-114.50056189 454.15598693 -140.81808069 437.18609876 -163.8125 415.25 C-164.66457031 414.45078125 -165.51664063 413.6515625 -166.39453125 412.828125 C-173.28089108 406.19119237 -179.15982545 398.94076975 -184.8125 391.25 C-185.22999512 390.68216797 -185.64749023 390.11433594 -186.07763672 389.52929688 C-210.58965435 355.65390242 -223.31993205 314.7811786 -223.125 273.125 C-223.12317719 272.31362579 -223.12135437 271.50225159 -223.11947632 270.66629028 C-223.07161556 257.98474824 -222.47718202 245.68693125 -219.8125 233.25 C-219.64621094 232.4446582 -219.47992188 231.63931641 -219.30859375 230.80957031 C-210.50677539 189.26172774 -187.13534461 143.61606962 -151.8125 118.25 C-153.13370828 115.31769807 -154.55888197 113.26335101 -156.8515625 111.015625 C-157.43164062 110.44199219 -158.01171875 109.86835938 -158.609375 109.27734375 C-159.21265625 108.69082031 -159.8159375 108.10429687 -160.4375 107.5 C-161.35402344 106.59701172 -161.35402344 106.59701172 -162.2890625 105.67578125 C-163.79238624 104.19594695 -165.30184856 102.72235324 -166.8125 101.25 C-167.34359375 101.52714844 -167.8746875 101.80429688 -168.421875 102.08984375 C-169.48148438 102.63318359 -169.48148438 102.63318359 -170.5625 103.1875 C-171.25859375 103.54714844 -171.9546875 103.90679687 -172.671875 104.27734375 C-178.21327246 106.7952415 -184.34331647 107.29988449 -190.1875 105.53125 C-197.40539586 102.50753687 -202.78298712 98.72298269 -206.05859375 91.41796875 C-208.40356062 84.67467023 -208.36381298 77.92914484 -205.8125 71.25 C-202.77019815 65.59833925 -197.87057333 61.07517127 -193.4375 56.5 C-192.64412231 55.66710449 -192.64412231 55.66710449 -191.8347168 54.81738281 C-187.01832027 49.98270635 -182.1306328 46.7881759 -175.3203125 45.68359375 C-166.48557617 45.69379552 -159.40028741 46.68132837 -152.9375 53.1171875 C-148.32276063 58.81905298 -146.35308654 64.7311771 -146.5546875 72.1328125 C-147.22727684 77.65619768 -149.01838684 83.09454273 -152.8125 87.25 C-151.4540798 90.29332765 -149.92786976 92.37309151 -147.5546875 94.703125 C-146.92949219 95.321875 -146.30429688 95.940625 -145.66015625 96.578125 C-145.00917969 97.21234375 -144.35820312 97.8465625 -143.6875 98.5 C-143.02878906 99.1496875 -142.37007813 99.799375 -141.69140625 100.46875 C-140.06953357 102.06711727 -138.4431719 103.66061897 -136.8125 105.25 C-132.39583228 103.64779233 -128.42952343 101.40328607 -124.375 99.0625 C-96.2368377 83.10545756 -63.72836599 70.77615525 -30.8125 72.25 C-30.8125 66.64 -30.8125 61.03 -30.8125 55.25 C-33.7825 54.755 -33.7825 54.755 -36.8125 54.25 C-45.04289144 50.03443365 -50.48992132 43.97635777 -53.9453125 35.45703125 C-56.28006757 26.82264427 -55.97065051 16.45673907 -52.0625 8.35546875 C-47.42111182 0.53763053 -41.00097755 -4.6254518 -32.33203125 -7.6015625 C-20.18671308 -10.49790229 -9.75065612 -7.56044395 0 0 Z M-90.8125 136.25 C-90.27051121 139.57039447 -89.55655961 142.03889567 -87.75 144.875 C-85.8125 148.25 -85.8125 148.25 -85.8125 151.25 C-89.7725 153.23 -93.7325 155.21 -97.8125 157.25 C-101.2775 151.31 -101.2775 151.31 -104.8125 145.25 C-114.56289279 149.15015712 -122.19393213 157.15811769 -129.8125 164.25 C-130.55242187 164.92417969 -131.29234375 165.59835938 -132.0546875 166.29296875 C-136.88594821 170.87492953 -140.93251817 175.84247153 -144.875 181.1875 C-145.36476318 181.85088379 -145.85452637 182.51426758 -146.35913086 183.19775391 C-148.93266611 186.40064787 -148.93266611 186.40064787 -149.8125 190.25 C-147.86025792 191.53406399 -145.84909238 192.72941678 -143.8125 193.875 C-142.141875 194.82246094 -142.141875 194.82246094 -140.4375 195.7890625 C-139.57125 196.27117187 -138.705 196.75328125 -137.8125 197.25 C-139.7925 201.21 -141.7725 205.17 -143.8125 209.25 C-149.32801552 208.1468969 -149.32801552 208.1468969 -152.375 206.125 C-155.4682935 204.03750643 -155.4682935 204.03750643 -157.90454102 204.39501953 C-160.42664847 205.52520767 -160.76788714 206.51045365 -161.77734375 209.0546875 C-162.10017334 209.85688721 -162.42300293 210.65908691 -162.75561523 211.4855957 C-163.08376221 212.35659912 -163.41190918 213.22760254 -163.75 214.125 C-164.09554932 215.01598389 -164.44109863 215.90696777 -164.79711914 216.82495117 C-169.78369431 230.03524607 -174.02158418 243.96883459 -173.875 258.1875 C-173.854375 260.188125 -173.83375 262.18875 -173.8125 264.25 C-168.8625 264.25 -163.9125 264.25 -158.8125 264.25 C-158.8125 269.53 -158.8125 274.81 -158.8125 280.25 C-163.7625 280.25 -168.7125 280.25 -173.8125 280.25 C-174.76394295 300.70602333 -168.30352551 322.22537699 -158.8125 340.25 C-155.45713085 339.84328859 -153.04781022 338.90611527 -150.1875 337.1875 C-146.8125 335.25 -146.8125 335.25 -143.8125 335.25 C-141.8325 339.21 -139.8525 343.17 -137.8125 347.25 C-141.7725 349.56 -145.7325 351.87 -149.8125 354.25 C-145.91219001 364.00077497 -137.9039468 371.63046673 -130.8125 379.25 C-130.18859375 379.92804688 -129.5646875 380.60609375 -128.921875 381.3046875 C-124.94550552 385.46483877 -120.65641546 389.09349823 -116.125 392.625 C-115.57811523 393.05425781 -115.03123047 393.48351562 -114.46777344 393.92578125 C-111.24198115 396.38390173 -108.66835084 397.70765966 -104.8125 399.25 C-102.5025 395.29 -100.1925 391.33 -97.8125 387.25 C-93.8525 389.23 -89.8925 391.21 -85.8125 393.25 C-86.92535266 398.81426332 -86.92535266 398.81426332 -88.875 401.875 C-91.06143376 405.03502696 -91.06143376 405.03502696 -90.8125 408.25 C-82.32214298 412.48328725 -74.14040634 416.02919046 -64.93359375 418.42578125 C-61.8125 419.25 -61.8125 419.25 -58.79296875 420.28515625 C-49.69440483 423.23056292 -40.29088084 423.47839472 -30.8125 423.25 C-30.8125 418.3 -30.8125 413.35 -30.8125 408.25 C-25.5325 408.25 -20.2525 408.25 -14.8125 408.25 C-14.8125 413.2 -14.8125 418.15 -14.8125 423.25 C5.65469336 424.10279972 27.092215 417.56180724 45.1875 408.25 C44.60926904 404.18774452 43.29632263 401.40237654 41.125 397.9375 C40.30322266 396.61298828 40.30322266 396.61298828 39.46484375 395.26171875 C39.04332031 394.59785156 38.62179687 393.93398438 38.1875 393.25 C39.0125 393.0025 39.8375 392.755 40.6875 392.5 C44.73472048 391.05456411 48.37164259 389.22371935 52.1875 387.25 C54.4975 391.21 56.8075 395.17 59.1875 399.25 C63.68253848 397.45198461 66.90623125 395.4542503 70.625 392.5 C71.23118164 392.01901855 71.83736328 391.53803711 72.46191406 391.04248047 C84.53598504 381.25681644 98.3256862 368.9045345 104.1875 354.25 C100.2275 351.94 96.2675 349.63 92.1875 347.25 C93.75 344.19010417 95.3125 341.13020833 96.875 338.0703125 C98.32814094 335.46624918 98.32814094 335.46624918 98.1875 333.25 C99.01894531 333.7553125 99.85039062 334.260625 100.70703125 334.78125 C101.79371094 335.4309375 102.88039063 336.080625 104 336.75 C105.07894531 337.3996875 106.15789062 338.049375 107.26953125 338.71875 C110.08101824 340.48233564 110.08101824 340.48233564 113.1875 340.25 C122.25072248 321.05098434 128.64748997 301.63953374 128.1875 280.25 C123.2375 280.25 118.2875 280.25 113.1875 280.25 C113.1875 274.97 113.1875 269.69 113.1875 264.25 C118.1375 264.25 123.0875 264.25 128.1875 264.25 C129.01594436 246.85266844 124.02127264 228.9421421 117.6875 212.875 C117.40293945 212.13056641 117.11837891 211.38613281 116.82519531 210.61914062 C115.90994335 208.29228263 115.90994335 208.29228263 114.1875 205.25 C112.24998928 204.39862393 112.24998928 204.39862393 110.1875 204.25 C107.86707269 205.21194047 107.86707269 205.21194047 105.625 206.6875 C101.48450272 209.25 101.48450272 209.25 98.1875 209.25 C96.2075 205.29 94.2275 201.33 92.1875 197.25 C96.1475 194.94 100.1075 192.63 104.1875 190.25 C100.28734288 180.49960721 92.27938231 172.86856787 85.1875 165.25 C84.17623047 164.14011719 84.17623047 164.14011719 83.14453125 163.0078125 C78.56257047 158.17655179 73.59502847 154.12998183 68.25 150.1875 C67.58661621 149.69773682 66.92323242 149.20797363 66.23974609 148.70336914 C63.03685213 146.12983389 63.03685213 146.12983389 59.1875 145.25 C57.90343601 147.20224208 56.70808322 149.21340762 55.5625 151.25 C54.93085938 152.36375 54.29921875 153.4775 53.6484375 154.625 C53.16632813 155.49125 52.68421875 156.3575 52.1875 157.25 C48.2275 155.27 44.2675 153.29 40.1875 151.25 C41.30035266 145.68573668 41.30035266 145.68573668 43.25 142.625 C45.43643376 139.46497304 45.43643376 139.46497304 45.1875 136.25 C26.10538052 127.24196036 6.50679165 120.68148556 -14.8125 121.25 C-14.8125 126.2 -14.8125 131.15 -14.8125 136.25 C-20.0925 136.25 -25.3725 136.25 -30.8125 136.25 C-30.8125 131.3 -30.8125 126.35 -30.8125 121.25 C-52.20873176 120.73442815 -71.88270101 126.5556484 -90.8125 136.25 Z " fill="#010000" transform="translate(278.8125,23.75)"/>
<path d="M0 0 C3.05116634 2.63386379 6.04238171 5.32877385 9.01000977 8.05615234 C9.85176758 8.82572266 10.69352539 9.59529297 11.56079102 10.38818359 C42.63084025 40.13375471 59.39644109 83.55229508 60.34619141 126.01293945 C60.56170761 146.03154879 57.89810199 165.2300469 51.01000977 184.05615234 C50.58075195 185.25755859 50.15149414 186.45896484 49.70922852 187.69677734 C33.59333429 230.36984938 1.58149048 264.17359165 -39.85668945 283.11816406 C-80.74336386 301.09557343 -127.70262583 302.15045079 -169.37670898 286.01708984 C-191.50118192 277.07938886 -209.7864349 264.44049075 -226.98999023 248.05615234 C-228.06700195 247.05841797 -228.06700195 247.05841797 -229.16577148 246.04052734 C-248.43843679 227.65618128 -260.61047225 202.95513231 -268.98999023 178.05615234 C-269.39217773 176.86376953 -269.79436523 175.67138672 -270.20874023 174.44287109 C-282.97153059 133.30220975 -276.3182118 87.52445147 -256.76977539 49.69482422 C-248.77196218 34.86216944 -238.56326583 22.22431593 -226.98999023 10.05615234 C-226.40991211 9.42322266 -225.82983398 8.79029297 -225.23217773 8.13818359 C-166.96739971 -53.49365446 -62.94603089 -53.16958737 0 0 Z M-175.98999023 -6.94384766 C-175.44800145 -3.62345319 -174.73404984 -1.15495198 -172.92749023 1.68115234 C-170.98999023 5.05615234 -170.98999023 5.05615234 -170.98999023 8.05615234 C-174.94999023 10.03615234 -178.90999023 12.01615234 -182.98999023 14.05615234 C-186.45499023 8.11615234 -186.45499023 8.11615234 -189.98999023 2.05615234 C-199.74038302 5.95630946 -207.37142236 13.96427003 -214.98999023 21.05615234 C-215.72991211 21.73033203 -216.46983398 22.40451172 -217.23217773 23.09912109 C-222.06343844 27.68108187 -226.1100084 32.64862388 -230.05249023 37.99365234 C-230.54225342 38.65703613 -231.0320166 39.32041992 -231.53662109 40.00390625 C-234.11015635 43.20680022 -234.11015635 43.20680022 -234.98999023 47.05615234 C-233.03774816 48.34021633 -231.02658262 49.53556913 -228.98999023 50.68115234 C-227.31936523 51.62861328 -227.31936523 51.62861328 -225.61499023 52.59521484 C-224.74874023 53.07732422 -223.88249023 53.55943359 -222.98999023 54.05615234 C-224.96999023 58.01615234 -226.94999023 61.97615234 -228.98999023 66.05615234 C-234.50550575 64.95304924 -234.50550575 64.95304924 -237.55249023 62.93115234 C-240.64578373 60.84365877 -240.64578373 60.84365877 -243.08203125 61.20117188 C-245.6041387 62.33136001 -245.94537738 63.31660599 -246.95483398 65.86083984 C-247.27766357 66.66303955 -247.60049316 67.46523926 -247.93310547 68.29174805 C-248.26125244 69.16275146 -248.58939941 70.03375488 -248.92749023 70.93115234 C-249.27303955 71.82213623 -249.61858887 72.71312012 -249.97460938 73.63110352 C-254.96118455 86.84139841 -259.19907441 100.77498693 -259.05249023 114.99365234 C-259.03186523 116.99427734 -259.01124023 118.99490234 -258.98999023 121.05615234 C-254.03999023 121.05615234 -249.08999023 121.05615234 -243.98999023 121.05615234 C-243.98999023 126.33615234 -243.98999023 131.61615234 -243.98999023 137.05615234 C-248.93999023 137.05615234 -253.88999023 137.05615234 -258.98999023 137.05615234 C-259.94143318 157.51217567 -253.48101575 179.03152933 -243.98999023 197.05615234 C-240.63462108 196.64944093 -238.22530045 195.71226761 -235.36499023 193.99365234 C-231.98999023 192.05615234 -231.98999023 192.05615234 -228.98999023 192.05615234 C-227.00999023 196.01615234 -225.02999023 199.97615234 -222.98999023 204.05615234 C-226.94999023 206.36615234 -230.90999023 208.67615234 -234.98999023 211.05615234 C-231.08968025 220.80692731 -223.08143704 228.43661908 -215.98999023 236.05615234 C-215.36608398 236.73419922 -214.74217773 237.41224609 -214.09936523 238.11083984 C-210.12299575 242.27099111 -205.8339057 245.89965057 -201.30249023 249.43115234 C-200.75560547 249.86041016 -200.2087207 250.28966797 -199.64526367 250.73193359 C-196.41947139 253.19005407 -193.84584108 254.51381201 -189.98999023 256.05615234 C-187.67999023 252.09615234 -185.36999023 248.13615234 -182.98999023 244.05615234 C-179.02999023 246.03615234 -175.06999023 248.01615234 -170.98999023 250.05615234 C-172.1028429 255.62041567 -172.1028429 255.62041567 -174.05249023 258.68115234 C-176.23892399 261.84117931 -176.23892399 261.84117931 -175.98999023 265.05615234 C-167.49963321 269.2894396 -159.31789658 272.8353428 -150.11108398 275.23193359 C-146.98999023 276.05615234 -146.98999023 276.05615234 -143.97045898 277.09130859 C-134.87189507 280.03671526 -125.46837107 280.28454706 -115.98999023 280.05615234 C-115.98999023 275.10615234 -115.98999023 270.15615234 -115.98999023 265.05615234 C-110.70999023 265.05615234 -105.42999023 265.05615234 -99.98999023 265.05615234 C-99.98999023 270.00615234 -99.98999023 274.95615234 -99.98999023 280.05615234 C-79.52279688 280.90895207 -58.08527523 274.36795959 -39.98999023 265.05615234 C-40.56822119 260.99389686 -41.8811676 258.20852888 -44.05249023 254.74365234 C-44.87426758 253.41914062 -44.87426758 253.41914062 -45.71264648 252.06787109 C-46.13416992 251.40400391 -46.55569336 250.74013672 -46.98999023 250.05615234 C-46.16499023 249.80865234 -45.33999023 249.56115234 -44.48999023 249.30615234 C-40.44276975 247.86071646 -36.80584765 246.0298717 -32.98999023 244.05615234 C-30.67999023 248.01615234 -28.36999023 251.97615234 -25.98999023 256.05615234 C-21.49495175 254.25813695 -18.27125898 252.26040264 -14.55249023 249.30615234 C-13.94630859 248.8251709 -13.34012695 248.34418945 -12.71557617 247.84863281 C-0.64150519 238.06296879 13.14819597 225.71068684 19.01000977 211.05615234 C15.05000977 208.74615234 11.09000977 206.43615234 7.01000977 204.05615234 C8.57250977 200.99625651 10.13500977 197.93636068 11.69750977 194.87646484 C13.1506507 192.27240152 13.1506507 192.27240152 13.01000977 190.05615234 C13.84145508 190.56146484 14.67290039 191.06677734 15.52954102 191.58740234 C16.6162207 192.23708984 17.70290039 192.88677734 18.82250977 193.55615234 C19.90145508 194.20583984 20.98040039 194.85552734 22.09204102 195.52490234 C24.903528 197.28848798 24.903528 197.28848798 28.01000977 197.05615234 C37.07323224 177.85713668 43.46999974 158.44568608 43.01000977 137.05615234 C38.06000977 137.05615234 33.11000977 137.05615234 28.01000977 137.05615234 C28.01000977 131.77615234 28.01000977 126.49615234 28.01000977 121.05615234 C32.96000977 121.05615234 37.91000977 121.05615234 43.01000977 121.05615234 C43.83845413 103.65882078 38.84378241 85.74829445 32.51000977 69.68115234 C32.22544922 68.93671875 31.94088867 68.19228516 31.64770508 67.42529297 C30.73245312 65.09843497 30.73245312 65.09843497 29.01000977 62.05615234 C27.07249904 61.20477627 27.07249904 61.20477627 25.01000977 61.05615234 C22.68958245 62.01809281 22.68958245 62.01809281 20.44750977 63.49365234 C16.30701249 66.05615234 16.30701249 66.05615234 13.01000977 66.05615234 C11.03000977 62.09615234 9.05000977 58.13615234 7.01000977 54.05615234 C10.97000977 51.74615234 14.93000977 49.43615234 19.01000977 47.05615234 C15.10985265 37.30575955 7.10189208 29.67472021 0.01000977 22.05615234 C-1.00125977 20.94626953 -1.00125977 20.94626953 -2.03295898 19.81396484 C-6.61491976 14.98270414 -11.58246177 10.93613418 -16.92749023 6.99365234 C-17.59087402 6.50388916 -18.25425781 6.01412598 -18.93774414 5.50952148 C-22.14063811 2.93598623 -22.14063811 2.93598623 -25.98999023 2.05615234 C-27.27405422 4.00839442 -28.46940702 6.01955996 -29.61499023 8.05615234 C-30.24663086 9.16990234 -30.87827148 10.28365234 -31.52905273 11.43115234 C-32.01116211 12.29740234 -32.49327148 13.16365234 -32.98999023 14.05615234 C-36.94999023 12.07615234 -40.90999023 10.09615234 -44.98999023 8.05615234 C-43.87713757 2.49188902 -43.87713757 2.49188902 -41.92749023 -0.56884766 C-39.74105648 -3.72887462 -39.74105648 -3.72887462 -39.98999023 -6.94384766 C-59.07210971 -15.9518873 -78.67069859 -22.5123621 -99.98999023 -21.94384766 C-99.98999023 -16.99384766 -99.98999023 -12.04384766 -99.98999023 -6.94384766 C-105.26999023 -6.94384766 -110.54999023 -6.94384766 -115.98999023 -6.94384766 C-115.98999023 -11.89384766 -115.98999023 -16.84384766 -115.98999023 -21.94384766 C-137.38622199 -22.45941951 -157.06019124 -16.63819926 -175.98999023 -6.94384766 Z " fill="#030201" transform="translate(363.989990234375,166.94384765625)"/>
<path d="M0 0 C0.63905273 0.30873047 1.27810547 0.61746094 1.93652344 0.93554688 C16.76917748 8.14978375 30.02398719 17.68564535 42 29 C43.32941948 30.12962233 44.66263718 31.25479312 46 32.375 C67.94747142 51.63951399 85.71290549 81.12522754 94 109 C94.19400391 109.64517578 94.38800781 110.29035156 94.58789062 110.95507812 C109.19437616 160.33470746 102.65933797 211.02561251 78.25 256.125 C71.55704759 268.12153123 63.23703958 278.92329891 53.8828125 288.96484375 C52.31538562 290.65909563 50.86510793 292.37699061 49.4375 294.1875 C46.24833579 297.86730485 42.74196163 300.8932479 39 304 C38.49210937 304.43086914 37.98421875 304.86173828 37.4609375 305.30566406 C9.42097211 329.0255185 -23.70067354 342.99087958 -60 348 C-61.86591797 348.28810547 -61.86591797 348.28810547 -63.76953125 348.58203125 C-97.27680491 352.60476138 -131.94945874 346.00775458 -162 331 C-162.70527832 330.65743164 -163.41055664 330.31486328 -164.13720703 329.96191406 C-180.13317477 322.15847083 -194.10968238 312.24687415 -207 300 C-208.36931218 298.82666277 -209.74391787 297.65946034 -211.125 296.5 C-240.01288431 271.18647865 -257.15771005 232.06612094 -264 195 C-264.22558594 193.82050781 -264.45117188 192.64101563 -264.68359375 191.42578125 C-272.27178322 144.69300057 -259.1543719 96.21009894 -232.1875 57.875 C-202.74014763 17.20073536 -158.90848132 -9.34715554 -109.515625 -17.8203125 C-71.70737112 -23.35896006 -34.0739727 -16.87760539 0 0 Z M-202 47 C-202.5561499 47.53351074 -203.1122998 48.06702148 -203.68530273 48.61669922 C-233.88612195 78.12405813 -249.400557 120.65104119 -250.40527344 162.3034668 C-250.67291002 191.9644936 -243.78980068 221.13257969 -229 247 C-228.35289062 248.13179687 -227.70578125 249.26359375 -227.0390625 250.4296875 C-219.67617171 262.79817993 -210.89263311 273.61938947 -201 284 C-200.33355469 284.71929687 -199.66710937 285.43859375 -198.98046875 286.1796875 C-170.59610279 315.93845434 -127.00550807 332.38440211 -86.4831543 333.35327148 C-39.32200746 333.71180416 2.96859773 316.38953637 37 284 C37.63421875 283.41863281 38.2684375 282.83726562 38.921875 282.23828125 C62.81123534 259.65714779 77.90473181 226.4663537 83.54174805 194.58740234 C83.86134394 192.78288593 84.1974481 190.98124902 84.54614258 189.18212891 C85.94290137 181.62356527 86.35018324 174.30430597 86.3125 166.625 C86.30686035 165.40546631 86.3012207 164.18593262 86.29541016 162.92944336 C85.69477321 117.40294654 67.09947794 76.69740668 35.5 44.25 C3.05237587 12.8288385 -40.50417419 -3.88329591 -85.51928711 -3.40258789 C-130.60052632 -2.19855691 -169.77158677 16.06787524 -202 47 Z " fill="#F87475" transform="translate(338,131)"/>
<path d="M0 0 C16.67274978 1.8217804 33.05749678 8.6562319 48 16 C48.64340332 16.31018066 49.28680664 16.62036133 49.94970703 16.93994141 C64.77664397 24.15314896 78.0283047 33.68972433 90 45 C91.32941948 46.12962233 92.66263718 47.25479312 94 48.375 C115.94747142 67.63951399 133.71290549 97.12522754 142 125 C142.19400391 125.64517578 142.38800781 126.29035156 142.58789062 126.95507812 C157.19437616 176.33470746 150.65933797 227.02561251 126.25 272.125 C119.55704759 284.12153123 111.23703958 294.92329891 101.8828125 304.96484375 C100.31538562 306.65909563 98.86510793 308.37699061 97.4375 310.1875 C94.24833579 313.86730485 90.74196163 316.8932479 87 320 C86.49210937 320.43086914 85.98421875 320.86173828 85.4609375 321.30566406 C63.13049437 340.19566102 32.73247829 358.46057125 3 361 C4.578037 357.843926 7.80768697 357.2737868 10.9375 356 C26.68494979 349.30733384 40.71287548 340.76093887 54 330 C54.95229492 329.22922119 54.95229492 329.22922119 55.92382812 328.44287109 C63.25111674 322.45516114 69.95247981 316.30913438 76 309 C79.45124365 304.96458148 82.91265305 301.04855775 86.75 297.375 C109.98702784 274.31740867 124.89912651 242.49805327 130.54174805 210.58740234 C130.86134394 208.78288593 131.1974481 206.98124902 131.54614258 205.18212891 C132.94290137 197.62356527 133.35018324 190.30430597 133.3125 182.625 C133.30404053 180.79569946 133.30404053 180.79569946 133.29541016 178.92944336 C132.69947372 133.75923187 114.3610855 92.29465367 82.5 60.375 C80.83936625 58.76362234 79.17734989 57.1619675 77.46875 55.6015625 C76 54 76 54 74.5625 51.578125 C69.49216496 43.21207219 60.61819128 36.92525988 53 31 C52.45102051 30.56929199 51.90204102 30.13858398 51.33642578 29.69482422 C35.57472325 17.41211584 18.29362005 8.87633972 0 1 C0 0.67 0 0.34 0 0 Z " fill="#FB2F4F" transform="translate(290,115)"/>
<path d="M0 0 C4.49503848 1.79801539 7.71873125 3.7957497 11.4375 6.75 C12.04368164 7.23098145 12.64986328 7.71196289 13.27441406 8.20751953 C25.34848504 17.99318356 39.1381862 30.3454655 45 45 C41.04 47.31 37.08 49.62 33 52 C34.98 55.96 36.96 59.92 39 64 C43.74618513 63.06769918 43.74618513 63.06769918 47.5625 60.875 C51 59 51 59 53.09204102 59.14941406 C55.59528916 60.26538547 55.94795352 61.2172453 56.96484375 63.734375 C57.28767334 64.52618164 57.61050293 65.31798828 57.94311523 66.13378906 C58.27126221 66.99713867 58.59940918 67.86048828 58.9375 68.75 C59.45582397 70.0798291 59.45582397 70.0798291 59.98461914 71.43652344 C65.75773244 86.78301263 69.2278641 102.59378452 69 119 C64.05 119 59.1 119 54 119 C54 124.28 54 129.56 54 135 C58.95 135 63.9 135 69 135 C69.95144295 155.45602333 63.49102551 176.97537699 54 195 C49.93774452 194.42176904 47.15237654 193.10882263 43.6875 190.9375 C42.80449219 190.38964844 41.92148437 189.84179688 41.01171875 189.27734375 C40.34785156 188.85582031 39.68398438 188.43429687 39 188 C38.7525 188.825 38.505 189.65 38.25 190.5 C36.80456411 194.54722048 34.97371935 198.18414259 33 202 C38.94 205.465 38.94 205.465 45 209 C41.09984288 218.75039279 33.09188231 226.38143213 26 234 C24.98873047 235.10988281 24.98873047 235.10988281 23.95703125 236.2421875 C19.37507047 241.07344821 14.40752847 245.12001817 9.0625 249.0625 C8.39911621 249.55226318 7.73573242 250.04202637 7.05224609 250.54663086 C2.26019402 254 2.26019402 254 0 254 C-1.98 250.37 -3.96 246.74 -6 243 C-4.35 242.01 -2.7 241.02 -1 240 C29.23839376 211.28623114 44.24818166 168.66281383 45.5234375 127.80444336 C45.83913765 100.59306391 38.89077634 74.80500815 26 51 C25.68305176 50.39704102 25.36610352 49.79408203 25.03955078 49.17285156 C17.87177308 35.5507297 7.0307812 18.68718746 -6 10 C-4.02 6.7 -2.04 3.4 0 0 Z " fill="#FCD222" transform="translate(338,169)"/>
<path d="M0 0 C5.28 0 10.56 0 16 0 C16 29.7 16 59.4 16 90 C18.97 90.99 18.97 90.99 22 92 C24.265625 93.98828125 24.265625 93.98828125 26.25 96.3125 C26.91515625 97.07175781 27.5803125 97.83101563 28.265625 98.61328125 C32.2865616 104.14659716 32.7536808 109.35214887 32 116 C30.22020902 123.56974391 26.58081228 128.79702028 20 133 C18.68 133.33 17.36 133.66 16 134 C16 147.86 16 161.72 16 176 C10.72 176 5.44 176 0 176 C0 162.14 0 148.28 0 134 C-1.32 133.67 -2.64 133.34 -4 133 C-9.58903019 129.23395427 -14.20516886 124.60722214 -16 118 C-16.82633873 111.62169791 -16.78147656 105.54939871 -13.4765625 99.890625 C-10.5008965 96.08051297 -6.97367088 92.75156584 -3 90 C-2.01 90 -1.02 90 0 90 C0 60.3 0 30.6 0 0 Z " fill="#010000" transform="translate(248,184)"/>
<path d="M0 0 C5.67476113 1.96434039 9.31400331 5.62800662 12 11 C12.59057744 16.67862925 12.29370905 21.16922672 9 26 C4.57092517 30.57795129 1.3260831 31.81241265 -4.875 32.3125 C-9.23455451 32.24767391 -11.6384369 30.82676897 -15 28 C-19.3022759 23.23261319 -20.36282503 19.56252705 -20.28125 13.28125 C-19.69180611 8.50020514 -16.85179203 5.75038822 -13.375 2.6875 C-8.92314854 -0.47565762 -5.3540278 -0.48837416 0 0 Z " fill="#7D6447" transform="translate(260,32)"/>
<path d="M0 0 C2.5625 2.0625 2.5625 2.0625 4 5 C4 10.78076681 2.19492934 13.61358599 -1.67382812 17.59179688 C-2.29708984 18.20087891 -2.92035156 18.80996094 -3.5625 19.4375 C-4.15869141 20.07365234 -4.75488281 20.70980469 -5.36914062 21.36523438 C-8.52170108 24.51103693 -10.74239137 26.4121201 -15.30859375 26.54296875 C-19 26 -19 26 -21.5 23.875 C-23.3440701 20.3405323 -23.84682469 18.92618718 -23 15 C-20.97813342 12.00690447 -18.56304744 9.53386663 -16 7 C-15.35160156 6.31808594 -14.70320313 5.63617188 -14.03515625 4.93359375 C-9.39625395 0.3865509 -6.51432541 -1.30286508 0 0 Z " fill="#86858D" transform="translate(111,87)"/>
<path d="M0 0 C2.5 0.5 2.5 0.5 4.25 2.6875 C6.98069246 8.83155804 7.97410947 16.5025241 5.60546875 22.92578125 C4.65021234 24.82616769 3.58433224 26.67018935 2.5 28.5 C0.375 28.9375 0.375 28.9375 -2.5 28.5 C-6.28613461 25.13052135 -9.13895012 21.60739648 -9.73828125 16.44921875 C-9.92037026 10.90029565 -9.17647961 7.91177553 -5.5 3.5 C-5.025625 2.88125 -4.55125 2.2625 -4.0625 1.625 C-2.5 0.5 -2.5 0.5 0 0 Z " fill="#A38663" transform="translate(249.5,33.5)"/>
<path d="M0 0 C3 1 3 1 4.1875 2.875 C5 5 5 5 5 8 C-3.71839112 12.11566508 -12.4478786 15.6540513 -21.6875 18.4375 C-22.53602539 18.69611816 -23.38455078 18.95473633 -24.25878906 19.22119141 C-28.25586561 20.38800507 -31.78919825 21.35161481 -36 21 C-33.31028617 19.20685745 -30.60809826 17.79418329 -27.70605469 16.38549805 C-18.79413863 12.05813759 -9.50600101 7.5454217 -1.828125 1.20703125 C-1.22484375 0.80871094 -0.6215625 0.41039062 0 0 Z " fill="#FAD023" transform="translate(319,424)"/>
<path d="M0 0 C6.14849445 0.60140625 11.78297779 1.89062012 17.6875 3.6875 C18.55729492 3.94934082 19.42708984 4.21118164 20.32324219 4.48095703 C27.54117549 6.72105131 34.2723477 9.53795995 41 13 C40.45276317 16.37462715 39.9451 18.08235 38 21 C34.42489911 19.71020879 31.7002677 18.17604816 28.6875 15.875 C19.92049685 9.58276651 9.91751487 5.16767162 0 1 C0 0.67 0 0.34 0 0 Z " fill="#F9D024" transform="translate(283,147)"/>
<path d="M0 0 C1.8046875 0.640625 1.8046875 0.640625 3.8046875 2.328125 C5.14507256 5.42776546 5.35136619 7.29221802 4.8046875 10.640625 C2.31384502 14.01058835 0.91879885 15.45872927 -3.2578125 16.140625 C-6.62408491 15.56764246 -7.98534714 15.2598432 -10.1953125 12.640625 C-11.16586381 9.90651093 -11.50945273 7.52959322 -11.1953125 4.640625 C-8.1181485 -0.22327939 -5.38557002 -1.09743691 0 0 Z " fill="#7A6245" transform="translate(259.1953125,288.359375)"/>
<path d="M0 0 C1.9453125 0.41015625 1.9453125 0.41015625 4.5078125 2.47265625 C6.46027525 6.46247144 6.32922101 8.18559344 4.9453125 12.41015625 C2.82316559 15.00220712 0.48370663 17.22965581 -2.0546875 19.41015625 C-2.7146875 18.42015625 -3.3746875 17.43015625 -4.0546875 16.41015625 C-7.06727261 12.4205165 -9.16832342 9.80626027 -14.0546875 8.41015625 C-12.38802083 6.74348958 -10.72135417 5.07682292 -9.0546875 3.41015625 C-8.6215625 2.81203125 -8.1884375 2.21390625 -7.7421875 1.59765625 C-5.30187551 -0.11960034 -2.91662888 -0.12376838 0 0 Z " fill="#56555B" transform="translate(109.0546875,86.58984375)"/>
<path d="M0 0 C1.32 0 2.64 0 4 0 C5.17635297 2.35270593 5.13359359 3.820752 5.125 6.4375 C5.12757813 7.21996094 5.13015625 8.00242187 5.1328125 8.80859375 C5 11 5 11 4 14 C-0.56 13.52 -0.56 13.52 -2.375 11.375 C-3.26273592 8.00160352 -2.75010146 5.37545659 -2 2 C-1.34 1.34 -0.68 0.68 0 0 Z " fill="#A08361" transform="translate(251,289)"/>
<path d="M0 0 C-1 2 -1 2 -3.75 3.125 C-6.70186896 3.91973395 -8.97219837 4.17810598 -12 4 C-4 -1.33333333 -4 -1.33333333 0 0 Z " fill="#F3CC2E" transform="translate(295,441)"/>
<path d="M0 0 C-0.33 0.99 -0.66 1.98 -1 3 C-3.64 3.33 -6.28 3.66 -9 4 C-8 2 -8 2 -5.625 0.875 C-3 0 -3 0 0 0 Z " fill="#E6304B" transform="translate(302,472)"/>
</svg>
